<?xml version="1.0" encoding="UTF-8" standalone="no"?>
<svg
   xmlns:dc="http://purl.org/dc/elements/1.1/"
   xmlns:cc="http://creativecommons.org/ns#"
   xmlns:rdf="http://www.w3.org/1999/02/22-rdf-syntax-ns#"
   xmlns:svg="http://www.w3.org/2000/svg"
   xmlns="http://www.w3.org/2000/svg"
   xmlns:sodipodi="http://sodipodi.sourceforge.net/DTD/sodipodi-0.dtd"
   xmlns:inkscape="http://www.inkscape.org/namespaces/inkscape"
   inkscape:version="1.0 (4035a4f, 2020-05-01)"
   height="42.77953"
   width="118.189"
   sodipodi:docname="Hochschule_Muenchen_Logo.svg"
   xml:space="preserve"
   viewBox="0 0 118.18901 42.77953"
   y="0px"
   x="0px"
   id="Ebene_1"
   version="1.1"><metadata
   id="metadata25"><rdf:RDF><cc:Work
       rdf:about=""><dc:format>image/svg+xml</dc:format><dc:type
         rdf:resource="http://purl.org/dc/dcmitype/StillImage" /><dc:title></dc:title></cc:Work></rdf:RDF></metadata><defs
   id="defs23" /><sodipodi:namedview
   inkscape:current-layer="Ebene_1"
   inkscape:window-maximized="0"
   inkscape:window-y="132"
   inkscape:window-x="1448"
   inkscape:cy="75.908778"
   inkscape:cx="101.2221"
   inkscape:zoom="2.6838426"
   showgrid="false"
   id="namedview21"
   inkscape:window-height="768"
   inkscape:window-width="1405"
   inkscape:pageshadow="2"
   inkscape:pageopacity="0"
   guidetolerance="10"
   gridtolerance="10"
   objecttolerance="10"
   borderopacity="1"
   bordercolor="#666666"
   pagecolor="#ffffff" />
<style
   id="style10"
   type="text/css">
	.st0{fill:#FC5555;}
</style>
<g
   transform="translate(-10.060203,-10.432803)"
   id="g18">
	
		<rect
   id="rect12"
   height="16.807381"
   width="16.807381"
   class="st0"
   transform="rotate(-18.434967,116.92901,21.259917)"
   y="12.856152"
   x="108.52544" />
	<polygon
   id="polygon14"
   points="46.062881,10.629921 40.94191,10.629921 40.94191,29.388807 15.75087,29.388807 15.75087,10.629921 10.629898,10.629921 10.629898,53.149605 15.75087,53.149605 15.75087,33.676739 40.94191,33.676739 40.94191,53.149605 46.062881,53.149605 "
   class="st0" />
	<polygon
   id="polygon16"
   points="95.669289,10.629921 88.047218,10.629921 74.616943,46.479675 74.499931,46.479675 61.069721,10.629921 53.149605,10.629921 53.149605,53.149605 58.032684,53.149605 58.032684,15.870908 58.151703,15.870908 72.295921,53.149605 76.462982,53.149605 90.608231,15.870908 90.727257,15.870908 90.727257,53.149605 95.669289,53.149605 "
   class="st0" />
</g>
</svg>
