<?xml version="1.0" standalone="no"?>
<!DOCTYPE svg PUBLIC "-//W3C//DTD SVG 20010904//EN"
 "http://www.w3.org/TR/2001/REC-SVG-20010904/DTD/svg10.dtd">
<svg version="1.0" xmlns="http://www.w3.org/2000/svg"
 width="879.000000pt" height="879.000000pt" viewBox="0 0 879.000000 879.000000"
 preserveAspectRatio="xMidYMid meet">
<metadata>
Created by potrace 1.14, written by Peter Selinger 2001-2017
</metadata>
<g transform="translate(0.000000,879.000000) scale(0.100000,-0.100000)"
fill="#000000" stroke="none">
<path d="M4546 7879 c-235 -26 -374 -61 -651 -167 -199 -76 -578 -277 -763
-404 l-44 -30 54 -22 c274 -113 463 -324 693 -774 72 -141 108 -183 172 -202
65 -20 107 -31 138 -36 62 -12 267 -84 336 -119 331 -166 410 -395 314 -910
-9 -47 -61 -255 -105 -420 -55 -208 -52 -254 18 -292 35 -20 148 -57 202 -67
14 -2 54 -9 90 -16 218 -40 475 -47 559 -16 119 44 163 94 281 321 112 217
178 315 274 410 251 247 580 246 1206 -5 370 -148 1037 -492 1177 -606 l42
-35 7 26 c7 28 -1 889 -9 945 -3 19 -8 67 -12 105 -10 112 -31 259 -45 315 -5
19 -11 46 -14 60 -17 98 -79 286 -126 385 -178 372 -492 565 -1042 640 -159
22 -197 24 -518 30 -162 3 -324 10 -360 16 -120 19 -206 74 -421 270 -165 150
-284 250 -370 311 -214 153 -444 245 -705 283 -63 10 -303 12 -378 4z"/>
<path d="M2585 7124 c-158 -20 -178 -24 -295 -54 -101 -25 -248 -74 -307 -101
-24 -10 -45 -19 -48 -19 -7 0 -188 -90 -238 -119 -45 -25 -220 -141 -227 -151
-3 -3 -23 -19 -45 -36 -101 -74 -288 -259 -388 -384 -89 -110 -200 -277 -275
-413 -55 -98 -66 -113 -133 -162 -222 -164 -379 -330 -474 -499 -44 -79 -91
-205 -111 -300 -23 -105 -22 -340 1 -471 3 -16 10 -57 16 -90 28 -161 123
-620 144 -700 97 -367 230 -539 505 -652 104 -43 202 -71 345 -97 11 -2 43 -7
70 -10 28 -4 64 -9 80 -12 17 -3 122 -7 235 -9 245 -4 323 7 446 64 253 119
406 271 483 483 23 61 48 149 56 193 2 17 7 39 9 50 2 12 8 48 12 80 4 33 8
65 9 70 1 6 3 33 3 60 2 49 3 51 50 77 26 14 75 51 108 82 114 103 376 198
627 227 126 15 340 6 457 -19 l85 -18 95 39 c52 21 109 44 125 52 17 7 55 24
86 38 191 84 314 158 362 219 29 36 30 43 33 145 7 261 16 320 79 517 47 146
55 199 50 346 -3 119 -11 159 -44 220 -48 90 -244 199 -406 226 -248 40 -360
105 -406 234 -31 88 -109 254 -160 337 -172 282 -422 475 -714 551 -88 22
-158 24 -300 6z"/>
<path d="M6695 5113 c-86 -12 -200 -54 -290 -106 -117 -69 -267 -229 -373
-399 -45 -73 -146 -268 -140 -273 2 -1 48 -36 103 -78 91 -68 226 -196 303
-287 117 -139 258 -414 287 -563 3 -10 6 -26 9 -35 5 -17 11 -49 22 -111 3
-18 7 -42 9 -53 6 -30 18 -205 18 -267 0 -53 -11 -265 -18 -341 -14 -157 -19
-240 -19 -335 -1 -132 9 -151 92 -192 50 -24 69 -28 148 -28 85 0 95 2 165 38
78 40 125 76 252 197 158 151 183 173 241 216 82 62 135 74 328 80 515 13 865
189 918 460 22 118 -2 318 -65 529 -15 50 -40 135 -57 190 -16 55 -43 152 -59
215 -16 63 -41 138 -55 166 -22 46 -87 123 -140 164 -112 88 -659 457 -838
564 -205 124 -394 205 -551 236 -61 12 -236 20 -290 13z"/>
<path d="M4578 4298 c-61 -8 -167 -36 -183 -48 -5 -4 -62 -34 -125 -67 -209
-109 -325 -136 -645 -148 -344 -13 -453 -25 -576 -61 -162 -48 -328 -162 -365
-249 -9 -23 -16 -78 -18 -150 -5 -147 -28 -220 -109 -340 -51 -74 -69 -95
-192 -223 -91 -95 -176 -171 -369 -334 l-29 -24 114 -86 c202 -152 298 -276
358 -461 17 -52 84 -171 132 -234 155 -206 421 -349 729 -393 36 -5 82 -12
103 -15 99 -16 381 -7 482 15 22 5 55 12 73 15 58 10 220 65 295 100 97 45
181 101 247 163 30 29 79 69 108 89 49 34 58 37 120 36 112 -1 221 -64 294
-171 18 -25 69 -129 114 -230 45 -101 105 -219 134 -261 59 -91 152 -186 230
-236 163 -106 420 -104 541 4 41 36 43 40 43 97 0 32 -3 75 -7 94 -22 98 -26
119 -32 170 -12 97 -7 235 10 301 24 92 50 121 153 169 131 62 167 113 203
284 34 167 42 574 14 791 -2 17 -7 54 -10 84 -29 236 -134 588 -227 759 -122
227 -312 364 -625 452 -111 31 -263 65 -333 75 -25 3 -56 8 -70 10 -14 3 -50
7 -80 10 -30 3 -77 8 -105 11 -78 9 -334 11 -397 2z"/>
</g>
</svg>
